<svg xmlns="http://www.w3.org/2000/svg" width="22" height="22" viewBox="0 0 22 22">
  <path id="noun_avatar_2102861_2_" data-name="noun_avatar_2102861 (2)" d="M25.851,22.006l-4.863-2a.688.688,0,0,1-.434-.635V18.239a.645.645,0,0,1,.138-.4,9.57,9.57,0,0,0,1.993-5.824C22.685,8.415,20.4,6,17,6s-5.685,2.415-5.685,6.012a9.571,9.571,0,0,0,1.993,5.824.645.645,0,0,1,.138.4v1.136a.688.688,0,0,1-.434.635L8.148,22A3.439,3.439,0,0,0,6,25.192v1.892A.917.917,0,0,0,6.917,28H27.083A.917.917,0,0,0,28,27.083V25.192a3.439,3.439,0,0,0-2.149-3.187Zm.316,4.161H7.833v-.975A1.612,1.612,0,0,1,8.845,23.7l4.863-2a2.515,2.515,0,0,0,1.571-2.331V18.239a2.484,2.484,0,0,0-.542-1.552,7.791,7.791,0,0,1-1.589-4.676c0-3.08,1.989-4.178,3.852-4.178s3.852,1.1,3.852,4.178a7.791,7.791,0,0,1-1.589,4.676,2.485,2.485,0,0,0-.542,1.552v1.136a2.515,2.515,0,0,0,1.571,2.331l4.863,2a1.612,1.612,0,0,1,1.012,1.49Z" transform="translate(-6 -6)"/>
</svg>
